<svg xmlns="http://www.w3.org/2000/svg" width="26" height="26" viewBox="0 0 32 32">
  <!-- Tracinhos de efeito de clique -->
  <line x1="2" y1="6" x2="5" y2="8" stroke="#c99a4a" stroke-width="1.6" stroke-linecap="round"/>
  <line x1="30" y1="6" x2="27" y2="8" stroke="#c99a4a" stroke-width="1.6" stroke-linecap="round"/>
  <line x1="1" y1="18" x2="4.5" y2="18" stroke="#c99a4a" stroke-width="1.6" stroke-linecap="round"/>
  <line x1="31" y1="18" x2="27.5" y2="18" stroke="#c99a4a" stroke-width="1.6" stroke-linecap="round"/>
  <line x1="16" y1="0" x2="16" y2="3" stroke="#c99a4a" stroke-width="1.6" stroke-linecap="round"/>

  <g transform="rotate(-20 16 16)">
    <!-- Almofada central (mais achatada, como se estivesse pressionando) -->
    <ellipse cx="16" cy="21" rx="8.5" ry="6" fill="#4a3220"/>
    <ellipse cx="16" cy="21" rx="5.3" ry="3.6" fill="#fce8ee"/>
    <!-- Dedinhos (levemente recolhidos) -->
    <ellipse cx="7.5" cy="14" rx="3" ry="3.4" fill="#4a3220"/>
    <ellipse cx="7.5" cy="14" rx="1.6" ry="2" fill="#fce8ee"/>

    <ellipse cx="14" cy="9.5" rx="3.2" ry="3.7" fill="#4a3220"/>
    <ellipse cx="14" cy="9.5" rx="1.7" ry="2.2" fill="#fce8ee"/>

    <ellipse cx="21" cy="9.5" rx="3.2" ry="3.7" fill="#4a3220"/>
    <ellipse cx="21" cy="9.5" rx="1.7" ry="2.2" fill="#fce8ee"/>

    <ellipse cx="27.5" cy="14" rx="3" ry="3.4" fill="#4a3220"/>
    <ellipse cx="27.5" cy="14" rx="1.6" ry="2" fill="#fce8ee"/>
  </g>
</svg>
